<svg width="99" height="24" viewBox="0 0 99 24" fill="none" xmlns="http://www.w3.org/2000/svg">
<path d="M21.4249 11.8194C22.0805 11.8194 22.6179 12.3522 22.555 13.0048C22.358 15.0479 21.6543 17.0096 20.5047 18.6914C19.1341 20.6964 17.1984 22.2034 14.9682 23.0016C12.738 23.7999 10.325 23.8494 8.06655 23.1433C5.80813 22.4372 3.81729 21.0109 2.37251 19.0637C0.927726 17.1165 0.101262 14.7459 0.00871649 12.2835C-0.083829 9.82106 0.562173 7.38999 1.85636 5.3303C3.15055 3.27061 5.0282 1.68532 7.22668 0.796169C9.04785 0.0596145 11.0137 -0.168722 12.9327 0.12297C13.5982 0.224125 13.9893 0.893959 13.8288 1.54766C13.6633 2.22145 12.9757 2.61808 12.2865 2.53851C10.8679 2.37472 9.42584 2.56809 8.08333 3.11106C6.34654 3.81349 4.8632 5.06586 3.84079 6.69302C2.81838 8.32017 2.30804 10.2407 2.38115 12.186C2.45426 14.1313 3.10716 16.0041 4.24854 17.5424C5.38992 19.0807 6.96268 20.2075 8.74684 20.7653C10.531 21.3231 12.4373 21.284 14.1991 20.6534C15.961 20.0228 17.4902 18.8322 18.5729 17.2483C19.4346 15.9878 19.9792 14.5283 20.1656 13.0037C20.2452 12.3529 20.7692 11.8194 21.4249 11.8194Z" fill="#305DEC"/>
<rect width="2.62026" height="6.21896" rx="1.31013" transform="matrix(0.725771 -0.687936 0.655207 0.75545 6.58203 10.2656)" fill="#0A2FA7"/>
<rect width="2.63455" height="15.9917" rx="1.31728" transform="matrix(0.636068 0.771633 -0.742968 0.669327 21.3242 2.76178)" fill="#4772FA"/>
<path d="M36.552 20C36.16 20 35.838 19.881 35.586 19.643C35.334 19.391 35.208 19.083 35.208 18.719V6.539H37.938V18.719C37.938 19.083 37.805 19.391 37.539 19.643C37.287 19.881 36.958 20 36.552 20ZM31.911 7.715C31.547 7.715 31.239 7.603 30.987 7.379C30.749 7.155 30.63 6.861 30.63 6.497C30.63 6.133 30.749 5.846 30.987 5.636C31.239 5.412 31.547 5.3 31.911 5.3H41.235C41.599 5.3 41.9 5.412 42.138 5.636C42.39 5.86 42.516 6.154 42.516 6.518C42.516 6.882 42.39 7.176 42.138 7.4C41.9 7.61 41.599 7.715 41.235 7.715H31.911ZM51.6167 8.555C51.9807 8.555 52.2817 8.674 52.5197 8.912C52.7577 9.15 52.8767 9.458 52.8767 9.836V18.719C52.8767 19.083 52.7577 19.391 52.5197 19.643C52.2817 19.881 51.9807 20 51.6167 20C51.2527 20 50.9517 19.881 50.7137 19.643C50.4757 19.391 50.3567 19.083 50.3567 18.719V17.69L50.8187 17.879C50.8187 18.061 50.7207 18.285 50.5247 18.551C50.3287 18.803 50.0627 19.055 49.7267 19.307C49.3907 19.559 48.9917 19.776 48.5297 19.958C48.0817 20.126 47.5917 20.21 47.0597 20.21C46.0937 20.21 45.2187 19.965 44.4347 19.475C43.6507 18.971 43.0277 18.285 42.5657 17.417C42.1177 16.535 41.8937 15.527 41.8937 14.393C41.8937 13.245 42.1177 12.237 42.5657 11.369C43.0277 10.487 43.6437 9.801 44.4137 9.311C45.1837 8.807 46.0377 8.555 46.9757 8.555C47.5777 8.555 48.1307 8.646 48.6347 8.828C49.1387 9.01 49.5727 9.241 49.9367 9.521C50.3147 9.801 50.6017 10.088 50.7977 10.382C51.0077 10.662 51.1127 10.9 51.1127 11.096L50.3567 11.369V9.836C50.3567 9.472 50.4757 9.171 50.7137 8.933C50.9517 8.681 51.2527 8.555 51.6167 8.555ZM47.3747 17.9C47.9907 17.9 48.5297 17.746 48.9917 17.438C49.4537 17.13 49.8107 16.71 50.0627 16.178C50.3287 15.646 50.4617 15.051 50.4617 14.393C50.4617 13.721 50.3287 13.119 50.0627 12.587C49.8107 12.055 49.4537 11.635 48.9917 11.327C48.5297 11.019 47.9907 10.865 47.3747 10.865C46.7727 10.865 46.2407 11.019 45.7787 11.327C45.3167 11.635 44.9527 12.055 44.6867 12.587C44.4347 13.119 44.3087 13.721 44.3087 14.393C44.3087 15.051 44.4347 15.646 44.6867 16.178C44.9527 16.71 45.3167 17.13 45.7787 17.438C46.2407 17.746 46.7727 17.9 47.3747 17.9ZM54.9542 18.257C54.8142 18.061 54.7512 17.809 54.7652 17.501C54.7792 17.193 54.9612 16.927 55.3112 16.703C55.5352 16.563 55.7732 16.507 56.0252 16.535C56.2772 16.549 56.5222 16.675 56.7602 16.913C57.1662 17.319 57.5932 17.634 58.0412 17.858C58.4892 18.082 59.0492 18.194 59.7212 18.194C59.9312 18.18 60.1622 18.152 60.4142 18.11C60.6662 18.054 60.8832 17.942 61.0652 17.774C61.2612 17.592 61.3592 17.319 61.3592 16.955C61.3592 16.647 61.2542 16.402 61.0442 16.22C60.8342 16.038 60.5542 15.884 60.2042 15.758C59.8682 15.632 59.4902 15.513 59.0702 15.401C58.6362 15.275 58.1882 15.135 57.7262 14.981C57.2782 14.827 56.8652 14.631 56.4872 14.393C56.1092 14.141 55.8012 13.812 55.5632 13.406C55.3252 13 55.2062 12.489 55.2062 11.873C55.2062 11.173 55.4022 10.578 55.7942 10.088C56.1862 9.598 56.6902 9.22 57.3062 8.954C57.9362 8.688 58.5942 8.555 59.2802 8.555C59.7142 8.555 60.1692 8.611 60.6452 8.723C61.1212 8.821 61.5762 8.989 62.0102 9.227C62.4442 9.451 62.8082 9.752 63.1022 10.13C63.2562 10.34 63.3472 10.592 63.3752 10.886C63.4032 11.18 63.2702 11.446 62.9762 11.684C62.7662 11.852 62.5212 11.929 62.2412 11.915C61.9612 11.887 61.7302 11.789 61.5482 11.621C61.3102 11.313 60.9882 11.068 60.5822 10.886C60.1902 10.704 59.7352 10.613 59.2172 10.613C59.0072 10.613 58.7762 10.641 58.5242 10.697C58.2862 10.739 58.0762 10.844 57.8942 11.012C57.7122 11.166 57.6212 11.418 57.6212 11.768C57.6212 12.09 57.7262 12.349 57.9362 12.545C58.1462 12.727 58.4262 12.881 58.7762 13.007C59.1402 13.119 59.5252 13.231 59.9312 13.343C60.3512 13.455 60.7782 13.588 61.2122 13.742C61.6462 13.896 62.0452 14.099 62.4092 14.351C62.7732 14.603 63.0672 14.932 63.2912 15.338C63.5152 15.73 63.6272 16.234 63.6272 16.85C63.6272 17.564 63.4172 18.173 62.9972 18.677C62.5772 19.181 62.0522 19.566 61.4222 19.832C60.7922 20.084 60.1482 20.21 59.4902 20.21C58.6642 20.21 57.8382 20.07 57.0122 19.79C56.1862 19.496 55.5002 18.985 54.9542 18.257ZM67.2061 20C66.8421 20 66.5411 19.881 66.3031 19.643C66.0651 19.391 65.9461 19.083 65.9461 18.719V5.741C65.9461 5.377 66.0651 5.076 66.3031 4.838C66.5411 4.586 66.8421 4.46 67.2061 4.46C67.5701 4.46 67.8711 4.586 68.1091 4.838C68.3471 5.076 68.4661 5.377 68.4661 5.741V18.719C68.4661 19.083 68.3471 19.391 68.1091 19.643C67.8711 19.881 67.5701 20 67.2061 20ZM73.8841 8.765C74.2061 8.765 74.4861 8.898 74.7241 9.164C74.9621 9.43 75.0811 9.689 75.0811 9.941C75.0811 10.277 74.9131 10.592 74.5771 10.886L68.2561 16.703L68.1511 13.805L72.9601 9.164C73.2261 8.898 73.5341 8.765 73.8841 8.765ZM74.1991 19.979C73.8351 19.979 73.5271 19.839 73.2751 19.559L69.3901 15.443L71.3011 13.679L75.0811 17.795C75.3471 18.075 75.4801 18.39 75.4801 18.74C75.4801 19.104 75.3331 19.405 75.0391 19.643C74.7591 19.867 74.4791 19.979 74.1991 19.979ZM82.5125 20.21C81.3225 20.21 80.2865 19.965 79.4045 19.475C78.5365 18.971 77.8645 18.292 77.3885 17.438C76.9265 16.584 76.6955 15.618 76.6955 14.54C76.6955 13.28 76.9475 12.209 77.4515 11.327C77.9695 10.431 78.6415 9.745 79.4675 9.269C80.2935 8.793 81.1685 8.555 82.0925 8.555C82.8065 8.555 83.4785 8.702 84.1085 8.996C84.7525 9.29 85.3195 9.696 85.8095 10.214C86.2995 10.718 86.6845 11.306 86.9645 11.978C87.2585 12.65 87.4055 13.364 87.4055 14.12C87.3915 14.456 87.2585 14.729 87.0065 14.939C86.7545 15.149 86.4605 15.254 86.1245 15.254H78.1025L77.4725 13.154H85.1795L84.7175 13.574V13.007C84.6895 12.601 84.5425 12.237 84.2765 11.915C84.0245 11.593 83.7025 11.341 83.3105 11.159C82.9325 10.963 82.5265 10.865 82.0925 10.865C81.6725 10.865 81.2805 10.921 80.9165 11.033C80.5525 11.145 80.2375 11.334 79.9715 11.6C79.7055 11.866 79.4955 12.223 79.3415 12.671C79.1875 13.119 79.1105 13.686 79.1105 14.372C79.1105 15.128 79.2645 15.772 79.5725 16.304C79.8945 16.822 80.3005 17.221 80.7905 17.501C81.2945 17.767 81.8265 17.9 82.3865 17.9C82.9045 17.9 83.3175 17.858 83.6255 17.774C83.9335 17.69 84.1785 17.592 84.3605 17.48C84.5565 17.354 84.7315 17.249 84.8855 17.165C85.1375 17.039 85.3755 16.976 85.5995 16.976C85.9075 16.976 86.1595 17.081 86.3555 17.291C86.5655 17.501 86.6705 17.746 86.6705 18.026C86.6705 18.404 86.4745 18.747 86.0825 19.055C85.7185 19.363 85.2075 19.636 84.5495 19.874C83.8915 20.098 83.2125 20.21 82.5125 20.21ZM90.8672 20C90.5032 20 90.2022 19.881 89.9642 19.643C89.7262 19.391 89.6072 19.083 89.6072 18.719V10.046C89.6072 9.682 89.7262 9.381 89.9642 9.143C90.2022 8.891 90.5032 8.765 90.8672 8.765C91.2312 8.765 91.5322 8.891 91.7702 9.143C92.0082 9.381 92.1272 9.682 92.1272 10.046V12.02L91.9802 10.613C92.1342 10.277 92.3302 9.983 92.5682 9.731C92.8202 9.465 93.1002 9.248 93.4082 9.08C93.7162 8.898 94.0452 8.765 94.3952 8.681C94.7452 8.597 95.0952 8.555 95.4452 8.555C95.8652 8.555 96.2152 8.674 96.4952 8.912C96.7892 9.15 96.9362 9.43 96.9362 9.752C96.9362 10.214 96.8172 10.55 96.5792 10.76C96.3412 10.956 96.0822 11.054 95.8022 11.054C95.5362 11.054 95.2912 11.005 95.0672 10.907C94.8572 10.809 94.6122 10.76 94.3322 10.76C94.0802 10.76 93.8212 10.823 93.5552 10.949C93.3032 11.061 93.0652 11.243 92.8412 11.495C92.6312 11.747 92.4562 12.062 92.3162 12.44C92.1902 12.804 92.1272 13.238 92.1272 13.742V18.719C92.1272 19.083 92.0082 19.391 91.7702 19.643C91.5322 19.881 91.2312 20 90.8672 20Z" fill="#3A3B3D"/>
</svg>
