<svg width="514" height="505" viewBox="0 0 514 505" fill="none" xmlns="http://www.w3.org/2000/svg">
<path d="M478.488 252.5C493.13 252.5 505.144 264.403 503.61 278.965C499.053 322.201 483.387 363.691 457.936 399.307C427.327 442.14 384.096 474.334 334.289 491.387C284.482 508.439 230.591 509.498 180.153 494.413C129.714 479.329 85.2526 448.857 52.9859 407.259C20.7191 365.661 2.26151 315.018 0.194668 262.413C-1.87218 209.808 12.5552 157.873 41.4587 113.872C70.3622 69.8704 112.296 36.0036 161.395 17.0086C202.221 1.21418 246.304 -3.64108 289.315 2.69803C303.801 4.833 312.342 19.4299 308.701 33.6123V33.6123C305.059 47.7947 290.605 56.1514 276.065 54.4216C243.846 50.5886 211.036 54.6589 180.527 66.4618C141.739 81.4679 108.611 108.223 85.7773 142.984C62.9436 177.745 51.546 218.774 53.1788 260.331C54.8116 301.889 69.3931 341.897 94.8838 374.76C120.375 407.622 155.499 431.695 195.346 443.612C235.192 455.528 277.766 454.692 317.113 441.22C356.461 427.749 390.614 402.315 414.795 368.477C433.814 341.862 445.916 311.095 450.216 278.935C452.156 264.422 463.845 252.5 478.488 252.5V252.5Z" fill="#305DEC"/>
<rect x="147" y="219.305" width="57.33" height="135.479" rx="26" transform="rotate(-42.1984 147 219.305)" fill="#0A2FA7"/>
<rect x="476.24" y="59" width="57.33" height="350.281" rx="25" transform="rotate(49.2469 476.24 59)" fill="#4772FA"/>
</svg>
