<svg width="27" height="27" viewBox="0 0 27 27" fill="none" xmlns="http://www.w3.org/2000/svg">
<g clip-path="url(#clip0_411_19)">
<path d="M3.375 19.125C3.375 19.7463 3.87868 20.25 4.5 20.25H22.5C23.1213 20.25 23.625 19.7463 23.625 19.125C23.625 18.5037 23.1213 18 22.5 18H4.5C3.87868 18 3.375 18.5037 3.375 19.125ZM3.375 13.5C3.375 14.1213 3.87868 14.625 4.5 14.625H22.5C23.1213 14.625 23.625 14.1213 23.625 13.5C23.625 12.8787 23.1213 12.375 22.5 12.375H4.5C3.87868 12.375 3.375 12.8787 3.375 13.5ZM4.5 6.75C3.87868 6.75 3.375 7.25368 3.375 7.875C3.375 8.49632 3.87868 9 4.5 9H22.5C23.1213 9 23.625 8.49632 23.625 7.875C23.625 7.25368 23.1213 6.75 22.5 6.75H4.5Z" fill="black"/>
</g>
<defs>
<clipPath id="clip0_411_19">
<rect width="27" height="27" fill="white"/>
</clipPath>
</defs>
</svg>
