<svg width="24" height="24" viewBox="0 0 24 24" fill="none" xmlns="http://www.w3.org/2000/svg">
<path d="M12 12C12.7956 12 13.5587 11.6839 14.1213 11.1213C14.6839 10.5587 15 9.79565 15 9C15 8.20435 14.6839 7.44129 14.1213 6.87868C13.5587 6.31607 12.7956 6 12 6C11.2044 6 10.4413 6.31607 9.87868 6.87868C9.31607 7.44129 9 8.20435 9 9C9 9.79565 9.31607 10.5587 9.87868 11.1213C10.4413 11.6839 11.2044 12 12 12ZM14 9C14 9.53043 13.7893 10.0391 13.4142 10.4142C13.0391 10.7893 12.5304 11 12 11C11.4696 11 10.9609 10.7893 10.5858 10.4142C10.2107 10.0391 10 9.53043 10 9C10 8.46957 10.2107 7.96086 10.5858 7.58579C10.9609 7.21071 11.4696 7 12 7C12.5304 7 13.0391 7.21071 13.4142 7.58579C13.7893 7.96086 14 8.46957 14 9ZM18 17C18 18 17 18 17 18H7C7 18 6 18 6 17C6 16 7 13 12 13C17 13 18 16 18 17ZM17 16.996C16.999 16.75 16.846 16.01 16.168 15.332C15.516 14.68 14.289 14 12 14C9.71 14 8.484 14.68 7.832 15.332C7.154 16.01 7.002 16.75 7 16.996H17Z" fill="black"/>
<circle cx="12" cy="12" r="11.7" stroke="black" stroke-width="0.6"/>
</svg>
