<svg width="16" height="16" viewBox="0 0 16 16" fill="none" xmlns="http://www.w3.org/2000/svg">
<g clip-path="url(#clip0_425_642)">
<path fill-rule="evenodd" clip-rule="evenodd" d="M6 12.5C6 12.6326 6.05268 12.7598 6.14645 12.8536C6.24021 12.9473 6.36739 13 6.5 13H14.5C14.6326 13 14.7598 12.9473 14.8536 12.8536C14.9473 12.7598 15 12.6326 15 12.5V3.5C15 3.36739 14.9473 3.24021 14.8536 3.14645C14.7598 3.05268 14.6326 3 14.5 3H6.5C6.36739 3 6.24021 3.05268 6.14645 3.14645C6.05268 3.24021 6 3.36739 6 3.5V5.5C6 5.63261 5.94732 5.75979 5.85355 5.85355C5.75979 5.94732 5.63261 6 5.5 6C5.36739 6 5.24021 5.94732 5.14645 5.85355C5.05268 5.75979 5 5.63261 5 5.5V3.5C5 3.10218 5.15804 2.72064 5.43934 2.43934C5.72064 2.15804 6.10218 2 6.5 2H14.5C14.8978 2 15.2794 2.15804 15.5607 2.43934C15.842 2.72064 16 3.10218 16 3.5V12.5C16 12.8978 15.842 13.2794 15.5607 13.5607C15.2794 13.842 14.8978 14 14.5 14H6.5C6.10218 14 5.72064 13.842 5.43934 13.5607C5.15804 13.2794 5 12.8978 5 12.5V10.5C5 10.3674 5.05268 10.2402 5.14645 10.1464C5.24021 10.0527 5.36739 10 5.5 10C5.63261 10 5.75979 10.0527 5.85355 10.1464C5.94732 10.2402 6 10.3674 6 10.5V12.5Z" fill="black"/>
<path fill-rule="evenodd" clip-rule="evenodd" d="M0.145917 8.35402C0.099354 8.30758 0.0624111 8.2524 0.0372047 8.19165C0.0119982 8.13091 -0.000976563 8.06579 -0.000976562 8.00002C-0.000976563 7.93425 0.0119982 7.86913 0.0372047 7.80839C0.0624111 7.74764 0.099354 7.69247 0.145917 7.64602L3.14592 4.64602C3.19241 4.59953 3.24759 4.56266 3.30833 4.5375C3.36907 4.51234 3.43417 4.49939 3.49992 4.49939C3.56566 4.49939 3.63076 4.51234 3.6915 4.5375C3.75224 4.56266 3.80743 4.59953 3.85392 4.64602C3.90041 4.69251 3.93728 4.7477 3.96244 4.80844C3.9876 4.86918 4.00055 4.93428 4.00055 5.00002C4.00055 5.06577 3.9876 5.13087 3.96244 5.19161C3.93728 5.25234 3.90041 5.30753 3.85392 5.35402L1.70692 7.50002H10.4999C10.6325 7.50002 10.7597 7.5527 10.8535 7.64647C10.9472 7.74024 10.9999 7.86741 10.9999 8.00002C10.9999 8.13263 10.9472 8.25981 10.8535 8.35358C10.7597 8.44734 10.6325 8.50002 10.4999 8.50002H1.70692L3.85392 10.646C3.90041 10.6925 3.93728 10.7477 3.96244 10.8084C3.9876 10.8692 4.00055 10.9343 4.00055 11C4.00055 11.0658 3.9876 11.1309 3.96244 11.1916C3.93728 11.2523 3.90041 11.3075 3.85392 11.354C3.80743 11.4005 3.75224 11.4374 3.6915 11.4625C3.63076 11.4877 3.56566 11.5007 3.49992 11.5007C3.43417 11.5007 3.36907 11.4877 3.30833 11.4625C3.24759 11.4374 3.19241 11.4005 3.14592 11.354L0.145917 8.35402Z" fill="black"/>
</g>
<defs>
<clipPath id="clip0_425_642">
<rect width="16" height="16" fill="white"/>
</clipPath>
</defs>
</svg>
