<svg width="28" height="28" viewBox="0 0 28 28" fill="none" xmlns="http://www.w3.org/2000/svg">
<g clip-path="url(#clip0_415_13)">
<path d="M12.8333 0V3.5H15.1667V0H12.8333ZM4.92643 3.27669L3.27669 4.92643L5.7513 7.40104L7.40104 5.7513L4.92643 3.27669ZM23.0736 3.27669L20.599 5.7513L22.2487 7.40104L24.7233 4.92643L23.0736 3.27669ZM14 5.83333C9.50349 5.83333 5.83333 9.50349 5.83333 14C5.83333 18.4965 9.50349 22.1667 14 22.1667C18.4965 22.1667 22.1667 18.4965 22.1667 14C22.1667 9.50349 18.4965 5.83333 14 5.83333ZM14 8.16667C17.2355 8.16667 19.8333 10.7645 19.8333 14C19.8333 17.2355 17.2355 19.8333 14 19.8333C10.7645 19.8333 8.16667 17.2355 8.16667 14C8.16667 10.7645 10.7645 8.16667 14 8.16667ZM0 12.8333V15.1667H3.5V12.8333H0ZM24.5 12.8333V15.1667H28V12.8333H24.5ZM5.7513 20.599L3.27669 23.0736L4.92643 24.7233L7.40104 22.2487L5.7513 20.599ZM22.2487 20.599L20.599 22.2487L23.0736 24.7233L24.7233 23.0736L22.2487 20.599ZM12.8333 24.5V28H15.1667V24.5H12.8333Z" fill="black"/>
</g>
<defs>
<clipPath id="clip0_415_13">
<rect width="28" height="28" fill="white"/>
</clipPath>
</defs>
</svg>
